<svg width="800" height="923" viewBox="0 0 800 923" fill="none" xmlns="http://www.w3.org/2000/svg">
<g clip-path="url(#clip0_2_4)">
<path d="M796.614 211.876L791.776 206.731H767.291L772.742 162.213C773.316 156.561 771.45 150.91 767.651 146.711C763.839 142.512 758.401 140.087 752.722 140.087H720.24V93.3022C720.24 82.3592 711.323 73.4422 700.367 73.4422H666.924V26.6578C666.924 15.7148 658.007 6.79773 647.051 6.79773H153.629C142.686 6.79773 133.769 15.7148 133.769 26.6578V73.4422H100.313C89.3702 73.4422 80.4532 82.3592 80.4532 93.3022V140.087H47.9707C42.2926 140.087 36.8544 142.512 33.0423 146.711C29.2436 150.91 27.3775 156.561 27.9907 162.506L33.4022 206.731H15.1416C10.863 206.731 6.83771 208.61 4.07863 211.876L-1.28746e-05 217.341L79.4269 775.235C81.2662 785.645 90.2632 793.202 100.82 793.202H699.847C710.39 793.202 719.4 785.672 721.32 774.808L799.773 223.632C800.52 219.42 799.36 215.142 796.614 211.876ZM160.427 33.4555H640.267V73.4422H160.427V33.4555ZM107.111 100.1H133.769H666.924H693.582V140.087H107.111V100.1ZM55.3549 166.744H80.4532H720.24H745.325L740.433 206.731H60.2599L55.3549 166.744ZM393.682 726.558C243.012 726.558 120.44 624.912 120.44 499.967C120.44 375.022 243.012 273.376 393.682 273.376C544.352 273.376 666.924 375.022 666.924 499.967C666.924 624.912 544.352 726.558 393.682 726.558Z" fill="#86CECB"/>
<path d="M407.011 339.207C407.011 331.836 401.053 325.878 393.682 325.878C340.46 325.878 290.01 342.006 247.784 372.516C241.826 376.821 240.48 385.152 244.785 391.123C247.384 394.735 251.463 396.641 255.608 396.641C258.314 396.641 261.033 395.815 263.406 394.122C301.046 366.918 346.098 352.536 393.682 352.536C401.053 352.536 407.011 346.578 407.011 339.207Z" fill="#86CECB"/>
<path d="M407.011 389.204C407.011 381.833 401.053 375.875 393.682 375.875C352.296 375.875 313.056 388.417 280.227 412.169C274.269 416.488 272.922 424.818 277.228 430.776C279.84 434.389 283.905 436.295 288.051 436.295C290.756 436.295 293.489 435.468 295.848 433.775C324.105 413.342 357.934 402.533 393.682 402.533C401.053 402.533 407.011 396.574 407.011 389.204Z" fill="#86CECB"/>
<path d="M407.011 439.187C407.011 431.816 401.053 425.858 393.682 425.858C363.972 425.858 335.848 434.922 312.323 452.076C306.378 456.408 305.058 464.738 309.404 470.683C312.003 474.269 316.068 476.161 320.187 476.161C322.906 476.161 325.651 475.322 328.024 473.602C346.951 459.807 369.663 452.516 393.682 452.516C401.053 452.516 407.011 446.558 407.011 439.187Z" fill="#86CECB"/>
<path d="M525.158 608.304C487.518 635.521 442.466 649.903 394.882 649.903C387.511 649.903 381.553 655.861 381.553 663.232C381.553 670.603 387.511 676.561 394.882 676.561C448.117 676.561 498.567 660.433 540.78 629.91C546.738 625.591 548.084 617.261 543.779 611.303C539.474 605.318 531.116 603.985 525.158 608.304Z" fill="#86CECB"/>
<path d="M381.553 613.236C381.553 620.606 387.511 626.565 394.882 626.565C436.281 626.565 475.521 614.009 508.337 590.257C514.309 585.938 515.641 577.608 511.336 571.649C507.004 565.678 498.674 564.345 492.729 568.65C464.485 589.097 430.656 599.907 394.895 599.907C387.511 599.907 381.553 605.865 381.553 613.236Z" fill="#86CECB"/>
<path d="M381.553 563.239C381.553 570.61 387.511 576.568 394.882 576.568C424.605 576.568 452.742 567.504 476.241 550.35C482.173 546.018 483.492 537.674 479.147 531.729C474.828 525.811 466.498 524.479 460.526 528.824C441.626 542.619 418.927 549.91 394.882 549.91C387.511 549.91 381.553 555.868 381.553 563.239Z" fill="#86CECB"/>
<path d="M398.96 522.266C416.09 522.266 429.977 512.187 429.977 499.753C429.977 487.32 416.09 477.241 398.96 477.241C381.83 477.241 367.944 487.32 367.944 499.753C367.944 512.187 381.83 522.266 398.96 522.266Z" fill="#86CECB"/>
<path d="M453.895 437.9C452.875 437.9 452.065 437.6 451.465 437C450.865 436.34 450.565 435.44 450.565 434.3V393.62C450.565 387.26 452.365 382.25 455.965 378.59C459.565 374.93 464.515 373.1 470.815 373.1C474.475 373.1 477.835 374.06 480.895 375.98C484.015 377.84 486.355 380.33 487.915 383.45C489.475 380.27 491.755 377.75 494.755 375.89C497.815 374.03 501.235 373.1 505.015 373.1C511.315 373.1 516.265 374.93 519.865 378.59C523.465 382.19 525.265 387.2 525.265 393.62V434.3C525.265 435.44 524.935 436.34 524.275 437C523.675 437.6 522.865 437.9 521.845 437.9C520.765 437.9 519.925 437.6 519.325 437C518.785 436.34 518.515 435.44 518.515 434.3V393.62C518.515 388.88 517.435 385.25 515.275 382.73C513.175 380.21 509.695 378.95 504.835 378.95C500.575 378.95 497.245 380.27 494.845 382.91C492.445 385.49 491.245 389.06 491.245 393.62V434.3C491.245 435.44 490.945 436.34 490.345 437C489.745 437.6 488.935 437.9 487.915 437.9C486.895 437.9 486.085 437.6 485.485 437C484.945 436.34 484.675 435.44 484.675 434.3V393.62C484.675 389.18 483.415 385.64 480.895 383C478.375 380.3 475.075 378.95 470.995 378.95C466.135 378.95 462.625 380.21 460.465 382.73C458.365 385.25 457.315 388.88 457.315 393.62V434.3C457.315 435.44 457.015 436.34 456.415 437C455.815 437.6 454.975 437.9 453.895 437.9ZM550.868 437C547.208 437 544.358 436.04 542.318 434.12C540.278 432.14 539.258 429.44 539.258 426.02V384.8C539.258 381.44 540.248 378.8 542.228 376.88C544.268 374.96 547.088 374 550.688 374H572.018C578.078 374 582.788 375.5 586.148 378.5C589.508 381.5 591.188 385.73 591.188 391.19C591.188 394.31 590.378 397.04 588.758 399.38C587.138 401.66 584.918 403.4 582.098 404.6V404.78C585.278 405.92 587.768 407.72 589.568 410.18C591.368 412.58 592.268 415.43 592.268 418.73C592.268 424.37 590.558 428.84 587.138 432.14C583.718 435.38 579.038 437 573.098 437H550.868ZM572.738 402.08C576.278 402.08 579.098 401.09 581.198 399.11C583.298 397.13 584.348 394.49 584.348 391.19C584.348 387.41 583.298 384.53 581.198 382.55C579.098 380.57 576.038 379.58 572.018 379.58H550.778C549.398 379.58 548.258 380.09 547.358 381.11C546.458 382.07 546.008 383.3 546.008 384.8V402.08H572.738ZM572.738 431.33C576.878 431.33 580.028 430.28 582.188 428.18C584.348 426.02 585.428 422.9 585.428 418.82C585.428 415.28 584.288 412.52 582.008 410.54C579.728 408.56 576.608 407.57 572.648 407.57H546.008V426.2C546.008 427.7 546.458 428.93 547.358 429.89C548.258 430.85 549.398 431.33 550.778 431.33H572.738Z" fill="#86CECB"/>
</g>
<path d="M125.674 898.96C124.586 898.96 123.722 898.64 123.082 898C122.442 897.296 122.122 896.336 122.122 895.12V851.728C122.122 844.944 124.042 839.6 127.882 835.696C131.722 831.792 137.002 829.84 143.722 829.84C147.626 829.84 151.21 830.864 154.474 832.912C157.802 834.896 160.298 837.552 161.962 840.88C163.626 837.488 166.058 834.8 169.258 832.816C172.522 830.832 176.17 829.84 180.202 829.84C186.922 829.84 192.202 831.792 196.042 835.696C199.882 839.536 201.802 844.88 201.802 851.728V895.12C201.802 896.336 201.45 897.296 200.746 898C200.106 898.64 199.242 898.96 198.154 898.96C197.002 898.96 196.106 898.64 195.466 898C194.89 897.296 194.602 896.336 194.602 895.12V851.728C194.602 846.672 193.45 842.8 191.146 840.112C188.906 837.424 185.194 836.08 180.01 836.08C175.466 836.08 171.914 837.488 169.354 840.304C166.794 843.056 165.514 846.864 165.514 851.728V895.12C165.514 896.336 165.194 897.296 164.554 898C163.914 898.64 163.05 898.96 161.962 898.96C160.874 898.96 160.01 898.64 159.37 898C158.794 897.296 158.506 896.336 158.506 895.12V851.728C158.506 846.992 157.162 843.216 154.474 840.4C151.786 837.52 148.266 836.08 143.914 836.08C138.73 836.08 134.986 837.424 132.682 840.112C130.442 842.8 129.322 846.672 129.322 851.728V895.12C129.322 896.336 129.002 897.296 128.362 898C127.722 898.64 126.826 898.96 125.674 898.96ZM235.447 898.96C229.175 898.96 224.247 897.168 220.663 893.584C217.143 890 215.383 885.008 215.383 878.608V853.84C215.383 852.624 215.703 851.696 216.343 851.056C216.983 850.352 217.847 850 218.935 850C220.023 850 220.855 850.352 221.431 851.056C222.071 851.696 222.391 852.624 222.391 853.84V878.608C222.391 883.152 223.607 886.672 226.039 889.168C228.471 891.664 231.863 892.912 236.215 892.912C239.671 892.912 242.743 892.144 245.431 890.608C248.119 889.072 250.199 886.928 251.671 884.176C253.207 881.424 253.975 878.256 253.975 874.672V853.84C253.975 852.624 254.263 851.696 254.839 851.056C255.479 850.352 256.375 850 257.527 850C258.615 850 259.447 850.352 260.023 851.056C260.663 851.696 260.983 852.624 260.983 853.84V895.12C260.983 896.336 260.663 897.296 260.023 898C259.447 898.64 258.615 898.96 257.527 898.96C256.375 898.96 255.479 898.608 254.839 897.904C254.263 897.2 253.975 896.272 253.975 895.12V889.456C251.607 892.528 248.855 894.896 245.719 896.56C242.583 898.16 239.159 898.96 235.447 898.96ZM294.902 898.96C290.422 898.96 286.198 898.128 282.23 896.464C278.262 894.736 275.126 892.368 272.822 889.36C272.374 888.72 272.15 888.08 272.15 887.44C272.15 886.8 272.31 886.256 272.63 885.808C273.014 885.296 273.494 884.912 274.07 884.656C274.582 884.464 274.998 884.368 275.318 884.368C275.894 884.368 276.374 884.528 276.758 884.848C277.206 885.104 277.718 885.552 278.294 886.192C282.454 890.608 287.99 892.816 294.902 892.816C298.23 892.816 300.918 892.24 302.966 891.088C305.014 889.936 306.038 888.336 306.038 886.288C306.038 884.816 305.622 883.632 304.79 882.736C304.022 881.776 302.678 880.912 300.758 880.144C298.902 879.312 295.83 878.16 291.542 876.688C287.382 875.28 284.118 873.936 281.75 872.656C279.382 871.376 277.622 869.936 276.47 868.336C275.318 866.672 274.742 864.656 274.742 862.288C274.742 858.576 276.342 855.6 279.542 853.36C282.806 851.12 287.126 850 292.502 850C296.47 850 300.15 850.704 303.542 852.112C306.934 853.456 309.494 855.28 311.222 857.584C311.734 858.288 311.99 858.96 311.99 859.6C311.99 860.56 311.478 861.328 310.454 861.904C309.814 862.288 309.174 862.48 308.534 862.48C307.446 862.48 306.422 862 305.462 861.04C303.798 859.376 301.974 858.16 299.99 857.392C298.006 856.56 295.478 856.144 292.406 856.144C289.014 856.144 286.422 856.688 284.63 857.776C282.838 858.864 281.942 860.4 281.942 862.384C281.942 863.856 282.294 865.04 282.998 865.936C283.766 866.768 284.95 867.536 286.55 868.24C288.214 868.88 291.094 869.872 295.19 871.216C299.798 872.752 303.35 874.224 305.846 875.632C308.406 876.976 310.23 878.48 311.318 880.144C312.47 881.808 313.046 883.856 313.046 886.288C313.046 890.128 311.35 893.2 307.958 895.504C304.63 897.808 300.278 898.96 294.902 898.96ZM329.232 839.824C327.824 839.824 326.608 839.376 325.584 838.48C324.624 837.52 324.144 836.368 324.144 835.024C324.144 833.68 324.624 832.528 325.584 831.568C326.608 830.608 327.824 830.128 329.232 830.128C330.64 830.128 331.856 830.64 332.88 831.664C333.968 832.624 334.512 833.744 334.512 835.024C334.512 836.304 333.968 837.424 332.88 838.384C331.856 839.344 330.64 839.824 329.232 839.824ZM329.232 898.96C328.144 898.96 327.28 898.64 326.64 898C326.064 897.296 325.776 896.336 325.776 895.12V853.84C325.776 852.624 326.064 851.696 326.64 851.056C327.28 850.352 328.144 850 329.232 850C330.384 850 331.248 850.352 331.824 851.056C332.464 851.696 332.784 852.624 332.784 853.84V895.12C332.784 896.336 332.464 897.296 331.824 898C331.248 898.64 330.384 898.96 329.232 898.96ZM371.376 898.96C366.256 898.96 361.744 897.968 357.84 895.984C353.936 893.936 350.928 891.056 348.816 887.344C346.704 883.632 345.648 879.312 345.648 874.384C345.648 869.52 346.704 865.264 348.816 861.616C350.928 857.904 353.936 855.056 357.84 853.072C361.744 851.024 366.256 850 371.376 850C376.176 850 380.336 850.672 383.856 852.016C387.376 853.36 390.16 855.344 392.208 857.968C392.72 858.672 392.976 859.344 392.976 859.984C392.976 860.944 392.496 861.808 391.536 862.576C391.088 862.96 390.512 863.152 389.808 863.152C388.72 863.152 387.696 862.672 386.736 861.712C383.344 857.936 378.224 856.048 371.376 856.048C365.424 856.048 360.816 857.648 357.552 860.848C354.352 863.984 352.752 868.496 352.752 874.384C352.752 880.208 354.384 884.752 357.648 888.016C360.912 891.28 365.488 892.912 371.376 892.912C374.64 892.912 377.648 892.432 380.4 891.472C383.152 890.448 385.424 889.008 387.216 887.152C388.304 886.064 389.328 885.52 390.288 885.52C390.864 885.52 391.504 885.776 392.208 886.288C393.104 887.056 393.552 887.888 393.552 888.784C393.552 889.616 393.2 890.32 392.496 890.896C389.36 893.712 386.096 895.76 382.704 897.04C379.312 898.32 375.536 898.96 371.376 898.96ZM417.83 898C413.926 898 410.886 896.976 408.71 894.928C406.534 892.816 405.446 889.936 405.446 886.288V842.32C405.446 838.736 406.502 835.92 408.614 833.872C410.79 831.824 413.798 830.8 417.638 830.8H440.39C446.854 830.8 451.878 832.4 455.462 835.6C459.046 838.8 460.838 843.312 460.838 849.136C460.838 852.464 459.974 855.376 458.246 857.872C456.518 860.304 454.15 862.16 451.142 863.44V863.632C454.534 864.848 457.19 866.768 459.11 869.392C461.03 871.952 461.99 874.992 461.99 878.512C461.99 884.528 460.166 889.296 456.518 892.816C452.87 896.272 447.878 898 441.542 898H417.83ZM441.158 860.752C444.934 860.752 447.942 859.696 450.182 857.584C452.422 855.472 453.542 852.656 453.542 849.136C453.542 845.104 452.422 842.032 450.182 839.92C447.942 837.808 444.678 836.752 440.39 836.752H417.734C416.262 836.752 415.046 837.296 414.086 838.384C413.126 839.408 412.646 840.72 412.646 842.32V860.752H441.158ZM441.158 891.952C445.574 891.952 448.934 890.832 451.238 888.592C453.542 886.288 454.694 882.96 454.694 878.608C454.694 874.832 453.478 871.888 451.046 869.776C448.614 867.664 445.286 866.608 441.062 866.608H412.646V886.48C412.646 888.08 413.126 889.392 414.086 890.416C415.046 891.44 416.262 891.952 417.734 891.952H441.158ZM497.858 898.96C492.29 898.96 487.522 897.84 483.554 895.6C479.586 893.36 476.578 890.384 474.53 886.672C472.546 882.896 471.554 878.832 471.554 874.48C471.554 870.128 472.546 866.096 474.53 862.384C476.578 858.608 479.586 855.6 483.554 853.36C487.522 851.12 492.29 850 497.858 850C503.426 850 508.162 851.12 512.066 853.36C516.034 855.6 519.01 858.608 520.994 862.384C523.042 866.096 524.066 870.128 524.066 874.48C524.066 878.832 523.042 882.896 520.994 886.672C519.01 890.384 516.034 893.36 512.066 895.6C508.162 897.84 503.426 898.96 497.858 898.96ZM497.858 892.912C503.618 892.912 508.226 891.28 511.682 888.016C515.202 884.752 516.962 880.24 516.962 874.48C516.962 868.72 515.202 864.208 511.682 860.944C508.226 857.68 503.618 856.048 497.858 856.048C492.034 856.048 487.362 857.68 483.842 860.944C480.386 864.208 478.658 868.72 478.658 874.48C478.658 880.24 480.386 884.752 483.842 888.016C487.362 891.28 492.034 892.912 497.858 892.912ZM552.647 898.96C546.375 898.96 541.447 897.584 537.863 894.832C534.343 892.08 532.583 888.272 532.583 883.408C532.583 878.608 534.439 874.8 538.151 871.984C541.927 869.168 547.047 867.76 553.511 867.76C557.287 867.76 560.615 868.272 563.495 869.296C566.439 870.32 568.711 871.696 570.311 873.424V867.28C570.311 863.632 569.095 860.848 566.663 858.928C564.295 857.008 560.807 856.048 556.199 856.048C550.247 856.048 545.095 857.456 540.743 860.272C539.655 860.912 538.759 861.232 538.055 861.232C537.415 861.232 536.775 860.976 536.135 860.464C535.431 859.888 535.079 859.152 535.079 858.256C535.079 857.296 535.495 856.496 536.327 855.856C538.631 854.064 541.543 852.656 545.063 851.632C548.647 850.544 552.295 850 556.007 850C562.791 850 568.039 851.536 571.751 854.608C575.527 857.68 577.415 862 577.415 867.568V895.216C577.415 897.712 576.263 898.96 573.959 898.96C572.935 898.96 572.103 898.64 571.463 898C570.823 897.296 570.503 896.4 570.503 895.312V891.856C566.535 896.592 560.583 898.96 552.647 898.96ZM553.511 893.104C558.503 893.104 562.567 892.176 565.703 890.32C568.839 888.4 570.407 885.936 570.407 882.928C570.407 879.92 568.935 877.616 565.991 876.016C563.111 874.352 559.015 873.52 553.703 873.52C549.223 873.52 545.767 874.384 543.335 876.112C540.903 877.776 539.687 880.208 539.687 883.408C539.687 886.544 540.871 888.944 543.239 890.608C545.607 892.272 549.031 893.104 553.511 893.104ZM593.944 898.96C592.856 898.96 591.992 898.64 591.352 898C590.776 897.296 590.488 896.336 590.488 895.12V853.84C590.488 852.624 590.776 851.696 591.352 851.056C591.928 850.352 592.792 850 593.944 850C595.032 850 595.864 850.352 596.44 851.056C597.08 851.696 597.4 852.624 597.4 853.84V859.6C601.752 853.84 607.768 850.96 615.448 850.96H617.848C619.064 850.96 620.024 851.248 620.728 851.824C621.432 852.336 621.784 853.072 621.784 854.032C621.784 854.992 621.432 855.728 620.728 856.24C620.024 856.752 619.064 857.008 617.848 857.008H615.16C609.72 857.008 605.4 858.576 602.2 861.712C599.064 864.784 597.496 868.976 597.496 874.288V895.12C597.496 896.272 597.176 897.2 596.536 897.904C595.96 898.608 595.096 898.96 593.944 898.96ZM649.807 898.96C641.871 898.96 635.599 896.816 630.991 892.528C626.447 888.176 624.175 882.256 624.175 874.768C624.175 870.032 625.167 865.808 627.151 862.096C629.199 858.32 632.143 855.376 635.983 853.264C639.887 851.088 644.559 850 649.999 850C654.607 850 658.511 850.864 661.711 852.592C664.975 854.32 667.855 856.72 670.351 859.792L670.447 828.976C670.447 827.76 670.735 826.832 671.311 826.192C671.951 825.488 672.847 825.136 673.999 825.136C675.087 825.136 675.919 825.488 676.495 826.192C677.135 826.832 677.455 827.76 677.455 828.976V895.12C677.455 896.336 677.135 897.296 676.495 898C675.919 898.64 675.087 898.96 673.999 898.96C672.911 898.96 672.047 898.64 671.407 898C670.767 897.296 670.447 896.336 670.447 895.12V888.976C668.207 892.24 665.327 894.736 661.807 896.464C658.351 898.128 654.351 898.96 649.807 898.96ZM650.383 892.912C656.591 892.912 661.487 891.28 665.071 888.016C668.655 884.688 670.447 880.176 670.447 874.48C670.447 870.704 669.519 867.44 667.663 864.688C665.871 861.872 663.439 859.728 660.367 858.256C657.359 856.784 654.063 856.048 650.479 856.048C644.463 856.048 639.759 857.776 636.367 861.232C632.975 864.624 631.279 869.136 631.279 874.768C631.279 880.784 632.943 885.328 636.271 888.4C639.599 891.408 644.303 892.912 650.383 892.912Z" fill="#86CECB"/>
<defs>
<clipPath id="clip0_2_4">
<rect width="800" height="800" fill="white"/>
</clipPath>
</defs>
</svg>
