<svg width="800" height="800" viewBox="0 0 800 800" fill="none" xmlns="http://www.w3.org/2000/svg">
<rect width="800" height="800" fill="#1E1E1E"/>
<g clip-path="url(#clip0_0_1)">
<path d="M796.614 211.876L791.776 206.731H767.291L772.742 162.213C773.316 156.561 771.45 150.91 767.651 146.711C763.839 142.512 758.401 140.087 752.722 140.087H720.24V93.3022C720.24 82.3592 711.323 73.4422 700.367 73.4422H666.924V26.6578C666.924 15.7148 658.007 6.79773 647.051 6.79773H153.629C142.686 6.79773 133.769 15.7148 133.769 26.6578V73.4422H100.313C89.3702 73.4422 80.4532 82.3592 80.4532 93.3022V140.087H47.9707C42.2926 140.087 36.8544 142.512 33.0423 146.711C29.2436 150.91 27.3775 156.561 27.9907 162.506L33.4022 206.731H15.1416C10.863 206.731 6.83771 208.61 4.07863 211.876L-1.28746e-05 217.341L79.4268 775.235C81.2662 785.645 90.2632 793.202 100.82 793.202H699.847C710.39 793.202 719.4 785.671 721.32 774.808L799.773 223.632C800.52 219.42 799.36 215.142 796.614 211.876ZM160.427 33.4555H640.267V73.4422H160.427V33.4555ZM107.111 100.1H133.769H666.924H693.582V140.087H107.111V100.1ZM55.3549 166.744H80.4532H720.24H745.325L740.433 206.731H60.2599L55.3549 166.744ZM393.682 726.558C243.012 726.558 120.44 624.912 120.44 499.967C120.44 375.022 243.012 273.376 393.682 273.376C544.352 273.376 666.924 375.022 666.924 499.967C666.924 624.912 544.352 726.558 393.682 726.558Z" fill="#86CECB"/>
<path d="M407.011 339.207C407.011 331.836 401.053 325.878 393.682 325.878C340.46 325.878 290.01 342.006 247.784 372.516C241.826 376.821 240.48 385.152 244.785 391.123C247.384 394.735 251.463 396.641 255.608 396.641C258.314 396.641 261.033 395.815 263.406 394.122C301.046 366.918 346.098 352.536 393.682 352.536C401.053 352.536 407.011 346.578 407.011 339.207Z" fill="#86CECB"/>
<path d="M407.011 389.204C407.011 381.833 401.053 375.875 393.682 375.875C352.296 375.875 313.056 388.417 280.227 412.169C274.269 416.488 272.922 424.818 277.228 430.776C279.84 434.389 283.905 436.295 288.051 436.295C290.756 436.295 293.489 435.468 295.848 433.775C324.105 413.342 357.934 402.533 393.682 402.533C401.053 402.533 407.011 396.574 407.011 389.204Z" fill="#86CECB"/>
<path d="M407.011 439.187C407.011 431.816 401.053 425.858 393.682 425.858C363.972 425.858 335.848 434.922 312.323 452.076C306.378 456.408 305.058 464.738 309.404 470.683C312.003 474.269 316.068 476.161 320.187 476.161C322.906 476.161 325.651 475.322 328.024 473.602C346.951 459.807 369.663 452.516 393.682 452.516C401.053 452.516 407.011 446.558 407.011 439.187Z" fill="#86CECB"/>
<path d="M525.158 608.304C487.518 635.521 442.466 649.903 394.882 649.903C387.511 649.903 381.553 655.861 381.553 663.232C381.553 670.603 387.511 676.561 394.882 676.561C448.117 676.561 498.567 660.433 540.78 629.91C546.738 625.591 548.084 617.261 543.779 611.303C539.474 605.318 531.116 603.985 525.158 608.304Z" fill="#86CECB"/>
<path d="M381.553 613.236C381.553 620.606 387.511 626.565 394.882 626.565C436.281 626.565 475.521 614.009 508.337 590.257C514.309 585.938 515.641 577.608 511.336 571.649C507.004 565.678 498.674 564.345 492.729 568.65C464.485 589.097 430.656 599.907 394.895 599.907C387.511 599.907 381.553 605.865 381.553 613.236Z" fill="#86CECB"/>
<path d="M381.553 563.239C381.553 570.61 387.511 576.568 394.882 576.568C424.605 576.568 452.742 567.504 476.241 550.35C482.173 546.018 483.492 537.674 479.147 531.729C474.828 525.811 466.498 524.479 460.526 528.824C441.626 542.619 418.927 549.91 394.882 549.91C387.511 549.91 381.553 555.868 381.553 563.239Z" fill="#86CECB"/>
<path d="M398.96 522.266C416.09 522.266 429.977 512.187 429.977 499.753C429.977 487.32 416.09 477.241 398.96 477.241C381.83 477.241 367.944 487.32 367.944 499.753C367.944 512.187 381.83 522.266 398.96 522.266Z" fill="#86CECB"/>
<mask id="path-9-outside-1_0_1" maskUnits="userSpaceOnUse" x="580" y="225" width="156" height="96" fill="black">
<rect fill="white" x="580" y="225" width="156" height="96"/>
<path d="M595.124 240.545H604.585L626.829 294.878H627.596L649.84 240.545H659.301V306H651.886V256.27H651.247L630.792 306H623.633L603.178 256.27H602.539V306H595.124V240.545ZM675.193 306V240.545H698.076C702.636 240.545 706.397 241.334 709.358 242.911C712.32 244.466 714.525 246.565 715.974 249.207C717.423 251.827 718.147 254.736 718.147 257.932C718.147 260.744 717.647 263.067 716.645 264.899C715.665 266.732 714.365 268.18 712.746 269.246C711.148 270.311 709.411 271.099 707.536 271.611V272.25C709.539 272.378 711.553 273.081 713.577 274.359C715.601 275.638 717.295 277.47 718.659 279.857C720.022 282.243 720.704 285.162 720.704 288.614C720.704 291.895 719.958 294.846 718.467 297.467C716.975 300.087 714.621 302.165 711.404 303.699C708.186 305.233 704 306 698.843 306H675.193ZM683.119 298.969H698.843C704.021 298.969 707.696 297.967 709.87 295.964C712.064 293.94 713.161 291.49 713.161 288.614C713.161 286.398 712.597 284.352 711.468 282.477C710.338 280.581 708.73 279.068 706.642 277.939C704.554 276.788 702.082 276.213 699.227 276.213H683.119V298.969ZM683.119 269.31H697.821C700.207 269.31 702.359 268.841 704.277 267.903C706.215 266.966 707.75 265.645 708.879 263.94C710.029 262.236 710.605 260.233 710.605 257.932C710.605 255.055 709.603 252.616 707.6 250.613C705.598 248.589 702.423 247.577 698.076 247.577H683.119V269.31Z"/>
</mask>
<path d="M595.124 240.545H604.585L626.829 294.878H627.596L649.84 240.545H659.301V306H651.886V256.27H651.247L630.792 306H623.633L603.178 256.27H602.539V306H595.124V240.545ZM675.193 306V240.545H698.076C702.636 240.545 706.397 241.334 709.358 242.911C712.32 244.466 714.525 246.565 715.974 249.207C717.423 251.827 718.147 254.736 718.147 257.932C718.147 260.744 717.647 263.067 716.645 264.899C715.665 266.732 714.365 268.18 712.746 269.246C711.148 270.311 709.411 271.099 707.536 271.611V272.25C709.539 272.378 711.553 273.081 713.577 274.359C715.601 275.638 717.295 277.47 718.659 279.857C720.022 282.243 720.704 285.162 720.704 288.614C720.704 291.895 719.958 294.846 718.467 297.467C716.975 300.087 714.621 302.165 711.404 303.699C708.186 305.233 704 306 698.843 306H675.193ZM683.119 298.969H698.843C704.021 298.969 707.696 297.967 709.87 295.964C712.064 293.94 713.161 291.49 713.161 288.614C713.161 286.398 712.597 284.352 711.468 282.477C710.338 280.581 708.73 279.068 706.642 277.939C704.554 276.788 702.082 276.213 699.227 276.213H683.119V298.969ZM683.119 269.31H697.821C700.207 269.31 702.359 268.841 704.277 267.903C706.215 266.966 707.75 265.645 708.879 263.94C710.029 262.236 710.605 260.233 710.605 257.932C710.605 255.055 709.603 252.616 707.6 250.613C705.598 248.589 702.423 247.577 698.076 247.577H683.119V269.31Z" fill="white"/>
<path d="M595.124 240.545V225.545H580.124V240.545H595.124ZM604.585 240.545L618.466 234.862L614.652 225.545H604.585V240.545ZM626.829 294.878L612.947 300.561L616.762 309.878H626.829V294.878ZM627.596 294.878V309.878H637.663L641.478 300.561L627.596 294.878ZM649.84 240.545V225.545H639.773L635.959 234.862L649.84 240.545ZM659.301 240.545H674.301V225.545H659.301V240.545ZM659.301 306V321H674.301V306H659.301ZM651.886 306H636.886V321H651.886V306ZM651.886 256.27H666.886V241.27H651.886V256.27ZM651.247 256.27V241.27H641.197L637.374 250.564L651.247 256.27ZM630.792 306V321H640.842L644.664 311.706L630.792 306ZM623.633 306L609.761 311.706L613.583 321H623.633V306ZM603.178 256.27L617.051 250.564L613.228 241.27H603.178V256.27ZM602.539 256.27V241.27H587.539V256.27H602.539ZM602.539 306V321H617.539V306H602.539ZM595.124 306H580.124V321H595.124V306ZM595.124 255.545H604.585V225.545H595.124V255.545ZM590.703 246.229L612.947 300.561L640.711 289.195L618.466 234.862L590.703 246.229ZM626.829 309.878H627.596V279.878H626.829V309.878ZM641.478 300.561L663.722 246.229L635.959 234.862L613.714 289.195L641.478 300.561ZM649.84 255.545H659.301V225.545H649.84V255.545ZM644.301 240.545V306H674.301V240.545H644.301ZM659.301 291H651.886V321H659.301V291ZM666.886 306V256.27H636.886V306H666.886ZM651.886 241.27H651.247V271.27H651.886V241.27ZM637.374 250.564L616.92 300.294L644.664 311.706L665.119 261.976L637.374 250.564ZM630.792 291H623.633V321H630.792V291ZM637.505 300.294L617.051 250.564L589.306 261.976L609.761 311.706L637.505 300.294ZM603.178 241.27H602.539V271.27H603.178V241.27ZM587.539 256.27V306H617.539V256.27H587.539ZM602.539 291H595.124V321H602.539V291ZM610.124 306V240.545H580.124V306H610.124ZM675.193 306H660.193V321H675.193V306ZM675.193 240.545V225.545H660.193V240.545H675.193ZM709.358 242.911L702.309 256.151L702.347 256.171L702.384 256.191L709.358 242.911ZM715.974 249.207L702.822 256.419L702.834 256.442L702.847 256.464L715.974 249.207ZM716.645 264.899L703.483 257.706L703.45 257.765L703.418 257.824L716.645 264.899ZM712.746 269.246L704.502 256.714L704.464 256.74L704.426 256.765L712.746 269.246ZM707.536 271.611L703.59 257.139L692.536 260.154V271.611H707.536ZM707.536 272.25H692.536V286.323L706.581 287.22L707.536 272.25ZM713.577 274.359L705.567 287.042L705.567 287.042L713.577 274.359ZM718.467 297.467L731.504 304.886L731.504 304.886L718.467 297.467ZM711.404 303.699L704.948 290.159L704.948 290.159L711.404 303.699ZM683.119 298.969H668.119V313.969H683.119V298.969ZM709.87 295.964L720.035 306.995L720.039 306.991L709.87 295.964ZM711.468 282.477L698.58 290.152L698.599 290.184L698.618 290.216L711.468 282.477ZM706.642 277.939L699.403 291.076L699.454 291.105L699.506 291.133L706.642 277.939ZM683.119 276.213V261.213H668.119V276.213H683.119ZM683.119 269.31H668.119V284.31H683.119V269.31ZM704.277 267.903L697.747 254.399L697.718 254.413L697.688 254.428L704.277 267.903ZM708.879 263.94L696.446 255.548L696.41 255.602L696.374 255.656L708.879 263.94ZM707.6 250.613L696.938 261.163L696.966 261.191L696.994 261.22L707.6 250.613ZM683.119 247.577V232.577H668.119V247.577H683.119ZM690.193 306V240.545H660.193V306H690.193ZM675.193 255.545H698.076V225.545H675.193V255.545ZM698.076 255.545C701.02 255.545 702.156 256.069 702.309 256.151L716.407 229.67C710.637 226.598 704.252 225.545 698.076 225.545V255.545ZM702.384 256.191C702.756 256.386 702.889 256.513 702.893 256.517C702.897 256.521 702.885 256.51 702.865 256.484C702.845 256.458 702.83 256.434 702.822 256.419L729.126 241.994C726.105 236.486 721.607 232.4 716.333 229.631L702.384 256.191ZM702.847 256.464C702.985 256.714 703.147 257.098 703.147 257.932H733.147C733.147 252.373 731.861 246.941 729.101 241.949L702.847 256.464ZM703.147 257.932C703.147 258.463 703.099 258.668 703.109 258.622C703.121 258.564 703.204 258.215 703.483 257.706L729.808 272.093C732.361 267.421 733.147 262.422 733.147 257.932H703.147ZM703.418 257.824C703.457 257.752 703.565 257.572 703.77 257.344C703.978 257.112 704.229 256.894 704.502 256.714L720.99 281.777C724.849 279.238 727.799 275.849 729.872 271.974L703.418 257.824ZM704.426 256.765C704.185 256.925 703.928 257.047 703.59 257.139L711.483 286.082C714.895 285.152 718.111 283.697 721.067 281.726L704.426 256.765ZM692.536 271.611V272.25H722.536V271.611H692.536ZM706.581 287.22C706.139 287.191 705.803 287.104 705.603 287.035C705.414 286.969 705.402 286.937 705.567 287.042L721.587 261.677C717.849 259.316 713.442 257.596 708.492 257.28L706.581 287.22ZM705.567 287.042C705.502 287.001 705.448 286.96 705.408 286.926C705.367 286.893 705.349 286.873 705.351 286.875C705.353 286.877 705.461 286.993 705.635 287.299L731.682 272.414C729.283 268.215 725.975 264.448 721.587 261.677L705.567 287.042ZM705.635 287.299C705.412 286.908 705.704 287.114 705.704 288.614H735.704C735.704 283.21 734.633 277.578 731.682 272.414L705.635 287.299ZM705.704 288.614C705.704 289.529 705.523 289.884 705.43 290.047L731.504 304.886C734.394 299.808 735.704 294.26 735.704 288.614H705.704ZM705.43 290.047C705.477 289.965 705.53 289.89 705.579 289.829C705.629 289.769 705.66 289.741 705.658 289.743C705.655 289.745 705.466 289.912 704.948 290.159L717.86 317.238C723.328 314.631 728.235 310.629 731.504 304.886L705.43 290.047ZM704.948 290.159C704.441 290.401 702.689 291 698.843 291V321C705.31 321 711.932 320.065 717.86 317.238L704.948 290.159ZM698.843 291H675.193V321H698.843V291ZM683.119 313.969H698.843V283.969H683.119V313.969ZM698.843 313.969C705.199 313.969 713.645 312.884 720.035 306.995L699.704 284.934C700.822 283.904 701.708 283.7 701.54 283.745C701.473 283.764 701.227 283.823 700.759 283.876C700.293 283.929 699.662 283.969 698.843 283.969V313.969ZM720.039 306.991C725.181 302.249 728.161 295.855 728.161 288.614H698.161C698.161 288.092 698.273 287.316 698.649 286.478C699.018 285.652 699.472 285.148 699.7 284.938L720.039 306.991ZM728.161 288.614C728.161 283.706 726.872 278.98 724.317 274.738L698.618 290.216C698.5 290.021 698.371 289.744 698.279 289.409C698.187 289.075 698.161 288.795 698.161 288.614H728.161ZM724.355 274.802C721.737 270.406 718.059 267.06 713.777 264.745L699.506 291.133C699.495 291.127 699.346 291.043 699.138 290.848C698.925 290.647 698.73 290.405 698.58 290.152L724.355 274.802ZM713.881 264.801C709.176 262.209 704.114 261.213 699.227 261.213V291.213C699.65 291.213 699.829 291.256 699.821 291.254C699.817 291.253 699.772 291.242 699.694 291.213C699.615 291.183 699.515 291.139 699.403 291.076L713.881 264.801ZM699.227 261.213H683.119V291.213H699.227V261.213ZM668.119 276.213V298.969H698.119V276.213H668.119ZM683.119 284.31H697.821V254.31H683.119V284.31ZM697.821 284.31C702.218 284.31 706.665 283.433 710.865 281.379L697.688 254.428C697.762 254.392 697.832 254.363 697.895 254.341C697.958 254.319 698.005 254.308 698.032 254.302C698.088 254.29 698.029 254.31 697.821 254.31V284.31ZM710.806 281.408C715.034 279.363 718.687 276.295 721.384 272.225L696.374 255.656C696.562 255.373 696.807 255.089 697.093 254.843C697.376 254.6 697.617 254.462 697.747 254.399L710.806 281.408ZM721.312 272.332C724.331 267.86 725.605 262.855 725.605 257.932H695.605C695.605 257.826 695.619 257.496 695.756 257.019C695.897 256.528 696.129 256.018 696.446 255.548L721.312 272.332ZM725.605 257.932C725.605 251.146 723.072 244.871 718.207 240.006L696.994 261.22C696.696 260.922 696.285 260.391 695.977 259.641C695.671 258.895 695.605 258.269 695.605 257.932H725.605ZM718.263 240.063C712.26 233.995 704.356 232.577 698.076 232.577V262.577C699.147 262.577 699.417 262.709 699.161 262.627C698.834 262.523 697.908 262.144 696.938 261.163L718.263 240.063ZM698.076 232.577H683.119V262.577H698.076V232.577ZM668.119 247.577V269.31H698.119V247.577H668.119Z" fill="#468499" mask="url(#path-9-outside-1_0_1)"/>
</g>
<defs>
<clipPath id="clip0_0_1">
<rect width="800" height="800" fill="white"/>
</clipPath>
</defs>
</svg>
